
<svg xmlns="http://www.w3.org/2000/svg" viewBox="0 0 55 55">
	<style type="text/css">
		.st0{fill:url(#SVGID_1_);}
		.st1{fill:url(#SVGID_2_);}
	</style>
	<linearGradient id="SVGID_1_" gradientUnits="userSpaceOnUse" x1="55.7445" y1="364.9359" x2="55.9829" y2="415.7235" gradientTransform="matrix(1 0 0 -1 -28.3689 417.7189)">
		<stop  offset="0" style="stop-color:#2E3436"/>
		<stop  offset="1" style="stop-color:#555753"/>
	</linearGradient>
	<circle class="st0" cx="27.5" cy="27.5" r="25.1"/>
	<linearGradient id="SVGID_2_" gradientUnits="userSpaceOnUse" x1="55.6457" y1="365.6229" x2="56.0998" y2="415.6578" gradientTransform="matrix(1 0 0 -1 -28.3689 417.7189)">
		<stop  offset="0" style="stop-color:#23CF5F"/>
		<stop  offset="1" style="stop-color:#60FF98"/>
	</linearGradient>
	<path class="st1" d="M27.5,2C13.4,2,2,13.4,2,27.5S13.4,53,27.5,53S53,41.6,53,27.5S41.6,2,27.5,2 M23.8,15.3
		c7.5,0,15.3,1.5,21.1,4.9c0.8,0.4,1.3,1.1,1.3,2.3c0,1.4-1.1,2.4-2.4,2.4c-0.5,0-0.8-0.1-1.3-0.4c-4.6-2.8-11.8-4.3-18.7-4.3
		c-3.4,0-7,0.4-10.2,1.2c-0.4,0.1-0.8,0.3-1.3,0.3c-1.4,0-2.4-1.1-2.4-2.4c0-1.4,0.9-2.2,1.8-2.4C15.3,15.8,19.4,15.3,23.8,15.3
		 M23.2,24.1c6.7,0,13.1,1.7,18.2,4.7c0.8,0.5,1.2,1.1,1.2,2c0,1.1-0.9,2-2,2c-0.5,0-0.9-0.2-1.3-0.4c-4.1-2.5-9.9-4.1-16.2-4.1
		c-3.2,0-6,0.5-8.3,1.1c-0.5,0.1-0.8,0.3-1.2,0.3c-1.1,0-2-0.9-2-2c0-1.1,0.5-1.8,1.6-2.1C16.1,24.7,19,24.1,23.2,24.1 M23.6,32.4
		c5.6,0,10.5,1.3,14.8,3.8c0.6,0.4,1,0.8,1,1.7c0,0.9-0.7,1.6-1.6,1.6c-0.4,0-0.7-0.1-1.1-0.4c-3.7-2.2-8.3-3.4-13.2-3.4
		c-2.7,0-5.5,0.4-8,0.9c-0.4,0.1-0.9,0.3-1.3,0.3c-1,0-1.6-0.8-1.6-1.6c0-1.1,0.6-1.6,1.4-1.7C17.2,32.8,20.3,32.4,23.6,32.4"/>
</svg>
