<?xml version="1.0" encoding="utf-8"?>
<!-- Generator: Adobe Illustrator 24.0.2, SVG Export Plug-In . SVG Version: 6.00 Build 0)  -->
<svg version="1.1" id="Layer_1" xmlns="http://www.w3.org/2000/svg" xmlns:xlink="http://www.w3.org/1999/xlink" x="0px" y="0px"
	 viewBox="0 0 500 500" style="enable-background:new 0 0 500 500;" xml:space="preserve">
<style type="text/css">
	.st0{fill:url(#SVGID_1_);}
	.st1{fill:url(#SVGID_2_);}
</style>
<linearGradient id="SVGID_1_" gradientUnits="userSpaceOnUse" x1="277.33" y1="109.6198" x2="279.417" y2="-334.9969" gradientTransform="matrix(1 0 0 1 -28.3689 361.7189)">
	<stop  offset="0" style="stop-color:#2E3436"/>
	<stop  offset="1" style="stop-color:#555753"/>
</linearGradient>
<circle class="st0" cx="250" cy="250" r="219.7"/>
<linearGradient id="SVGID_2_" gradientUnits="userSpaceOnUse" x1="276.4647" y1="103.605" x2="280.44" y2="-334.4216" gradientTransform="matrix(1 0 0 1 -28.3689 361.7189)">
	<stop  offset="0" style="stop-color:#23CF5F"/>
	<stop  offset="1" style="stop-color:#60FF98"/>
</linearGradient>
<path class="st1" d="M250,27.1C126.9,27.1,27.1,126.9,27.1,250S126.9,472.9,250,472.9S473,373.1,473,250S373.2,27.1,250,27.1
	 M217.3,143.5c65.5,0,134.3,13.5,184.6,43c6.8,3.8,11.5,9.6,11.5,20.2c0,12.1-9.8,20.9-21,20.9c-4.5,0-7.2-1.1-11.5-3.4
	c-40.3-24.2-103-37.5-163.5-37.5c-30.2,0-60.9,3.1-89,10.7c-3.2,0.8-7.3,2.4-11.4,2.4c-11.9,0-21-9.4-21-21.3
	c0-12.1,7.5-18.9,15.6-21.3C143.3,147.8,178.8,143.5,217.3,143.5 M212.8,220.1c58.3,0,114.8,14.5,159.2,41.1
	c7.4,4.3,10.2,9.7,10.2,17.6c0,9.7-7.7,17.5-17.4,17.5c-4.8,0-7.9-2-11.2-3.9c-36.3-21.5-86.5-35.8-141.5-35.8
	c-28.2,0-52.6,4-72.8,9.3c-4.3,1.2-6.8,2.5-10.8,2.5c-9.6,0-17.4-7.8-17.4-17.5c0-9.5,4.6-16,13.9-18.6
	C150,225.4,175.6,220.1,212.8,220.1 M215.9,292.8c48.8,0,92.2,11.2,129.7,33.6c5.6,3.3,8.8,6.6,8.8,14.8c0,8-6.5,13.9-13.9,13.9
	c-3.6,0-6.1-1.3-9.4-3.3c-32.3-19.5-72.6-29.8-115.3-29.8c-23.9,0-47.9,3.1-70.3,7.7c-3.7,0.8-8.2,2.2-11,2.2
	c-8.5,0-14.1-6.7-14.1-14c0-9.4,5.4-14,12.1-15.3C160,296.4,187.4,292.8,215.9,292.8"/>
</svg>
