<svg xmlns="http://www.w3.org/2000/svg" width="0" height="0">
	<svg id="icon-play" viewBox="0 0 500 500">
		<path fill="#fff" d="M481.811,263.495L56.673,499.753c-9.924,5.443-17.928,0.642-17.928-10.562V17.952c0-11.205,8.004-16.007,17.928-10.564 L481.81,243.647C491.734,249.089,491.734,258.053,481.811,263.495z"/>
	</svg>

	<svg id="icon-pause" viewBox="0 0 500 500">
		<path fill="#fff" d="M137.5,482c0,8.285-6.716,15-15,15h-102c-8.284,0-15-6.715-15-15V34c0-8.283,6.716-15,15-15h102c8.284,0,15,6.717,15,15V482 z"/>
		<path fill="#fff" d="M414.5,482c0,8.285-6.716,15-15,15h-102c-8.284,0-15-6.715-15-15V34c0-8.283,6.716-15,15-15h102c8.284,0,15,6.717,15,15V482 z"/>
	</svg>

	<svg id="icon-previous" viewBox="0 0 500 500">
		<path fill="#fff" d="M112.549,241.619L471.603,42.085c8.383-4.598,15.142-0.541,15.142,8.922v397.987c0,9.463-6.759,13.519-15.142,8.923 L112.549,258.382C104.168,253.786,104.168,246.216,112.549,241.619z"/>
		<path fill="#fff" d="M13.255,396.001c0,11.945,9.684,21.63,21.63,21.63h49.748c11.946,0,21.63-9.685,21.63-21.63V103.999 c0-11.947-9.684-21.629-21.63-21.629H34.885c-11.946,0-21.63,9.682-21.63,21.629V396.001z"/>
	</svg>

	<svg id="icon-next" viewBox="0 0 500 500">
		<path fill="#fff" d="M387.45,258.382L28.396,457.917c-8.383,4.596-15.142,0.54-15.142-8.923V51.007c0-9.463,6.759-13.52,15.142-8.922 L387.45,241.619C395.831,246.216,395.831,253.786,387.45,258.382z"/>
		<path fill="#fff" d="M486.744,396.001c0,11.945-9.684,21.63-21.63,21.63h-49.748c-11.946,0-21.63-9.685-21.63-21.63V103.999 c0-11.947,9.684-21.629,21.63-21.629h49.748c11.946,0,21.63,9.682,21.63,21.629V396.001z"/>
	</svg>

	<svg id="icon-random" viewBox="0 0 500 500">
		<path fill="#fff" d="M368.157,173.301h21.345v66.398L482,146.342l-92.521-93.379v55.378h-21.344c-85.701,0-134.004,63.521-176.645,119.526 c-38.327,50.391-71.457,93.937-124.956,93.937H18v64.938h48.558c85.7,0,134.003-63.476,176.646-119.526 C281.529,216.801,314.658,173.301,368.157,173.301L368.157,173.301z M143.512,214.226c3.666-4.71,7.332-9.558,11.066-14.454 c9.049-11.924,18.652-24.476,29.047-37.027c-30.67-28.628-67.629-49.74-117.067-49.74H18v64.937h48.558 C97.344,177.94,121.355,192.395,143.512,214.226z M389.479,326.421h-21.344c-32.643,0-57.698-16.263-80.991-40.321 c-2.32,3.039-4.664,6.124-7.03,9.21c-10.231,13.456-21.228,27.863-33.385,42.178c31.459,30.717,69.601,53.917,121.383,53.917h21.344 v55.634L482,353.657l-92.521-93.38V326.421L389.479,326.421z"/>
	</svg>

	<svg id="icon-repeat" viewBox="0 0 500 500">
		<path fill="#fff" d="M413.145,116.855l-99.858-99.857L280,50.283l46.642,46.643L180.07,96.967c-40.783-0.041-79.129,15.803-108.013,44.688 c-28.867,28.867-44.786,67.271-44.761,108.087l47.049-0.049c-0.033-56.488,49.23-105.751,105.691-105.691h139.39L280,183.428 l33.286,33.287L413.145,116.855z M186.714,283.287l-99.858,99.857l99.858,99.857L220,449.717l-46.643-46.643l146.563-0.033 c40.783,0.041,79.129-15.803,108.013-44.686c28.876-28.875,44.787-67.289,44.771-108.097l-47.05,0.051 c0.033,56.486-49.23,105.75-105.691,105.691H180.572L220,316.572L186.714,283.287z"/>
	</svg>

	<svg id="icon-rounded-corner" viewBox="0 0 500 500">
		<path d="M0,0v500h500C223.9,500,0,276.1,0,0z"/>
	</svg>
</svg>