<svg xmlns="http://www.w3.org/2000/svg" width="0" height="0">

	<svg id="icon-play" viewBox="0 0 13 13">
		<path fill="#fff" d="M11.9,6.7L2.4,12C2.2,12.1,2,12,2,11.7V1.3C2,1,2.2,0.9,2.4,1l9.4,5.3C12.1,6.4,12.1,6.6,11.9,6.7z"/>
	</svg>

	<svg id="icon-pause" viewBox="0 0 13 13">
		<path fill="#fff" d="M5,11.6C5,11.8,4.8,12,4.6,12H2.3c-0.2,0-0.3-0.2-0.3-0.3V1.4C1.9,1.2,2.1,1,2.3,1h2.3C4.8,1,5,1.2,5,1.4V11.6z "/>
		<path fill="#fff" d="M11,11.6c0,0.2-0.2,0.3-0.3,0.3H8.3C8.1,12,8,11.8,8,11.6V1.4C8,1.2,8.1,1,8.3,1h2.3C10.8,1,11,1.2,11,1.4V11.6z"/>
	</svg>

	<svg id="icon-previous" viewBox="0 0 13 13">
		<path fill="#fff" d="M3.3,6.3l8.3-4.6c0.2-0.1,0.4,0,0.4,0.2v9.2c0,0.2-0.2,0.3-0.4,0.2L3.3,6.7C3.1,6.6,3.1,6.4,3.3,6.3z"/>
		<path fill="#fff" d="M1,9.5C1,9.8,1.2,10,1.5,10h1C2.8,10,3,9.8,3,9.5v-6c0-0.3-0.2-0.5-0.5-0.5h-1C1.2,2.9,1,3.2,1,3.4
			C1,3.4,1,9.5,1,9.5z"/>
	</svg>

	<svg id="icon-next" viewBox="0 0 13 13">
		<path fill="#fff" d="M9.7,6.7l-8.3,4.6c-0.2,0.1-0.4,0-0.4-0.2V1.9c0-0.2,0.2-0.3,0.4-0.2l8.3,4.6C9.9,6.4,9.9,6.6,9.7,6.7z"/>
		<path fill="#fff" d="M12,3.5C12,3.2,11.8,3,11.5,3h-1C10.2,3,10,3.2,10,3.5v6c0,0.3,0.2,0.5,0.5,0.5h1c0.3,0,0.5-0.2,0.5-0.5
			C12,9.6,12,3.5,12,3.5z"/>
	</svg>

	<svg id="icon-random" viewBox="0 0 13 13">
		<path fill="#fff" d="M9.3,4.7h0.5v1.6L12,4L9.8,1.8v1.3H9.3c-2,0-3.2,1.5-4.2,2.8c-0.9,1.2-1.7,2.2-3,2.2H1v1.5h1.1
			c2,0,3.2-1.5,4.2-2.8C7.2,5.7,8,4.7,9.3,4.7L9.3,4.7z M4,5.7c0.1-0.1,0.2-0.2,0.3-0.3C4.5,5,4.7,4.7,4.9,4.4
			C4.2,3.8,3.3,3.3,2.2,3.3H1v1.5h1.1C2.9,4.8,3.5,5.1,4,5.7z M9.8,8.3H9.3c-0.8,0-1.4-0.4-1.9-1C7.3,7.4,7.3,7.5,7.2,7.6
			C7,7.9,6.7,8.2,6.4,8.6c0.7,0.7,1.6,1.3,2.9,1.3h0.5v1.3L12,9L9.8,6.7V8.3L9.8,8.3z"/>
	</svg>

	<svg id="icon-repeat" viewBox="0 0 13 13">
		<path fill="#fff" d="M10.5,3.2L8.1,0.8L7.2,1.6l1.1,1.1l-3.6,0c-1,0-1.9,0.4-2.7,1.1C1.4,4.5,1,5.5,1,6.5l1.2,0
			c0-1.4,1.2-2.6,2.6-2.6h3.4l-1,1l0.8,0.8L10.5,3.2z M4.9,7.3L2.5,9.8l2.5,2.5l0.8-0.8l-1.1-1.1l3.6,0c1,0,1.9-0.4,2.7-1.1
			C11.6,8.5,12,7.5,12,6.5l-1.2,0c0,1.4-1.2,2.6-2.6,2.6H4.8l1-1L4.9,7.3z"/>
	</svg>

	<svg id="icon-home" viewBox="0 0 17 17">
		<path fill="#00ea89" d="M15.8,8l-2.4-2.1V2.4h-2v1.7L8.7,1.6c-0.1-0.1-0.3-0.1-0.5,0L1.1,8C1.1,8,1,8.2,1,8.3c0,0.2,0.2,0.3,0.4,0.3H3
			v6C3,14.8,3.2,15,3.5,15h3.2c0.2,0,0.4-0.1,0.4-0.3V11h3v3.7c0,0.2,0.2,0.3,0.4,0.3h3.3c0.2,0,0.3-0.2,0.3-0.3V8.7h1.7
			c0.1,0,0.2,0,0.3-0.1C16,8.6,16.1,8.1,15.8,8z"/>
	</svg>

	<svg id="icon-browse" viewBox="0 0 17 17">
		<path fill="#00ea89" d="M15.3,4.8H1.7C1.3,4.8,1,5.2,1,5.6l1,8.7c0,0.4,0.4,0.6,0.7,0.6h11.6c0.3,0,0.7-0.3,0.7-0.6l1-8.7
			C16,5.2,15.7,4.8,15.3,4.8z M8.5,12.7c-1.5,0-2.8-1.3-2.8-2.8S7,7.1,8.5,7.1s2.8,1.3,2.8,2.8S10,12.7,8.5,12.7z"/>
		<path fill="#00ea89" d="M2.3,4h12.3l0.1-1.3c0-0.4-0.2-0.7-0.5-0.7H2.8c-0.3,0-0.6,0.3-0.5,0.7L2.3,4z"/>
	</svg>

	<svg id="icon-radio" viewBox="0 0 17 17">
		<path fill="#00ea89" d="M8.5,6.4c-1.2,0-2.1,0.9-2.1,2.1c0,1.2,0.9,2.1,2.1,2.1c1.1,0,2.1-0.9,2.1-2.1C10.6,7.3,9.7,6.4,8.5,6.4z"/>
		<path fill="#00ea89" d="M13.8,3.2c-0.3-0.3-0.8-0.3-1.1,0c-0.3,0.3-0.3,0.8,0,1.1c2.3,2.3,2.3,6.1,0,8.5c-0.3,0.3-0.3,0.8,0,1.1
			c0.1,0.1,0.3,0.2,0.5,0.2c0.2,0,0.4-0.1,0.5-0.2C16.7,10.9,16.7,6.1,13.8,3.2z"/>
		<path fill="#00ea89" d="M11.9,5.1c-0.3-0.3-0.8-0.3-1.1,0c-0.3,0.3-0.3,0.8,0,1.1c0.6,0.6,1,1.5,1,2.3c0,0.9-0.3,1.7-1,2.3
			c-0.3,0.3-0.3,0.8,0,1.1c0.1,0.1,0.3,0.2,0.5,0.2c0.2,0,0.4-0.1,0.5-0.2c0.9-0.9,1.4-2.1,1.4-3.4C13.3,7.2,12.8,6,11.9,5.1z"/>
		<path fill="#00ea89" d="M2.5,8.5c0-1.6,0.6-3.1,1.7-4.2c0.3-0.3,0.3-0.8,0-1.1C4,2.9,3.5,2.9,3.2,3.2C1.8,4.6,1,6.5,1,8.5
			s0.8,3.9,2.2,5.3C3.3,13.9,3.5,14,3.7,14s0.4-0.1,0.5-0.2c0.3-0.3,0.3-0.8,0-1.1C3.1,11.6,2.5,10.1,2.5,8.5z"/>
		<path fill="#00ea89" d="M5.2,8.5c0-0.9,0.3-1.7,1-2.3c0.3-0.3,0.3-0.8,0-1.1c-0.3-0.3-0.8-0.3-1.1,0C4.2,6,3.7,7.2,3.7,8.5
			s0.5,2.5,1.4,3.4c0.1,0.1,0.3,0.2,0.5,0.2c0.2,0,0.4-0.1,0.5-0.2c0.3-0.3,0.3-0.8,0-1.1C5.6,10.2,5.2,9.4,5.2,8.5z"/>
	</svg>

	<svg id="icon-queue" viewBox="0 0 17 17">
		<path fill="#00ea89" d="M1.3,6.5c0.1,0.1,0.2,0.1,0.3,0.1c0.1,0,0.2,0,0.3-0.1l3.2-1.9c0.1-0.1,0.2-0.1,0.2-0.2C5.6,4,5.5,3.6,5.2,3.5
			L2,1.5C1.9,1.4,1.8,1.4,1.7,1.4C1.3,1.4,1,1.7,1,2.1V6C1,6.2,1.1,6.4,1.3,6.5z"/>
		<rect fill="#00ea89" x="7" y="2" width="9" height="1"/>
		<rect fill="#00ea89" x="7" y="5" width="9" height="1"/>
		<rect fill="#00ea89" x="1" y="8" width="15" height="1"/>
		<rect fill="#00ea89" x="1" y="11" width="15" height="1"/>
		<rect fill="#00ea89" x="1" y="14" width="15" height="1"/>
	</svg>

	<svg id="icon-devices" viewBox="0 0 17 17">
		<path fill="#00ea89" d="M9,10H2V3h11.6l0,2h0.9l0-2.2c0-0.4-0.4-0.8-0.8-0.8H1.8C1.4,2,1,2.4,1,2.8v8.4C1,11.6,1.4,12,1.8,12h4.9
			l-0.2,0.9c0,0.1-0.1,0.2-0.3,0.2H5.7c-0.2,0-0.3,0.1-0.3,0.3v0.3c0,0.2,0.1,0.3,0.3,0.3H9V10z M7.9,11.3c-0.2,0-0.4-0.2-0.4-0.4
			s0.2-0.4,0.4-0.4c0.2,0,0.4,0.2,0.4,0.4S8.1,11.3,7.9,11.3z"/>
		<path fill="#00ea89" d="M16,12.4l0-5.5C16,6.4,15.6,6,15.1,6h-4.2C10.4,6,10,6.4,10,6.9l0,7.2c0,0.5,0.4,0.9,0.9,0.9h4.2
			c0.5,0,0.9-0.4,0.9-0.9V12.4z M12.7,6.3h0.6c0.2,0,0.3,0.1,0.3,0.3c0,0.2-0.1,0.3-0.3,0.3h-0.6c-0.2,0-0.3-0.1-0.3-0.3
			C12.4,6.4,12.6,6.3,12.7,6.3z M13,14.7c-0.5,0-0.9-0.4-0.9-0.9c0-0.5,0.4-0.9,0.9-0.9c0.5,0,0.9,0.4,0.9,0.9
			C13.9,14.3,13.5,14.7,13,14.7z"/>
		<circle fill="#00ea89" cx="13" cy="13.8" r="0.3"/>
	</svg>

	<svg id="icon-history" viewBox="0 0 17 17">
		<path fill="#00ea89" d="M16,8.5c0,4.1-3.4,7.5-7.5,7.5c-2.2,0-4.3-1-5.8-2.7c-0.1-0.1-0.1-0.3,0-0.4l1.3-1.3c0.1-0.1,0.2-0.1,0.2-0.1
			c0.1,0,0.2,0,0.2,0.1c1,1.2,2.4,1.9,3.9,1.9c2.7,0,5-2.2,5-5s-2.2-5-5-5C7.2,3.5,6,4,5.1,4.8l1.3,1.3c0.2,0.2,0.2,0.4,0.1,0.7
			C6.5,7.1,6.3,7.3,6,7.3H1.6C1.3,7.3,1,7,1,6.6V2.3C1,2,1.2,1.8,1.4,1.7c0.2-0.1,0.5,0,0.7,0.1l1.3,1.3C4.7,1.8,6.6,1,8.5,1
			C12.6,1,16,4.4,16,8.5z M9.7,5.7v4.4c0,0.2-0.1,0.3-0.3,0.3H6.3c-0.2,0-0.3-0.1-0.3-0.3V9.4c0-0.2,0.1-0.3,0.3-0.3h2.2V5.7
			c0-0.2,0.1-0.3,0.3-0.3h0.6C9.6,5.4,9.7,5.5,9.7,5.7z"/>
	</svg>

	<svg id="icon-library" viewBox="0 0 17 17">
		<rect fill="#00ea89" x="2" y="3" width="2" height="11"/>
		<rect fill="#00ea89" x="6" y="3" width="2" height="11"/>
		<rect fill="#00ea89" x="11" y="3" transform="matrix(0.9388 -0.3445 0.3445 0.9388 -2.1936 4.654)" width="2" height="11"/>
	</svg>

	<svg id="icon-search" viewBox="0 0 17 17">
		<path fill="#00ea89" d="M11.4,7.3c0-2.2-1.8-4-4-4s-4,1.8-4,4s1.8,4,4,4S11.4,9.6,11.4,7.3L11.4,7.3z M16,14.8c0,0.6-0.5,1.2-1.2,1.2
			c-0.3,0-0.6-0.1-0.8-0.3l-3.1-3.1c-1.1,0.7-2.3,1.1-3.6,1.1C3.8,13.7,1,10.9,1,7.3S3.8,1,7.3,1s6.3,2.8,6.3,6.3
			c0,1.3-0.4,2.5-1.1,3.6l3.1,3.1C15.9,14.2,16,14.5,16,14.8L16,14.8z"/>
	</svg>

	<svg id="icon-rounded-corner" viewBox="0 0 4 4">
		<path d="M0,0v4h4C1.8,4,0,2.2,0,0z"/>
	</svg>

	<svg id="icon-head-genre" viewBox="0 0 29 29">
		<path fill="#00ea89" d="M8.6,16.2H6.9V28h1.7c0.5,0,0.8-0.4,0.8-0.8V17C9.4,16.6,9.1,16.2,8.6,16.2z"/>
		<path fill="#00ea89" d="M20.4,16.2c-0.5,0-0.8,0.4-0.8,0.8v10.1c0,0.5,0.4,0.8,0.8,0.8h1.7V16.2H20.4z"/>
		<path fill="#00ea89" d="M28,14.5C28,7,21.9,1,14.5,1S1,7,1,14.5c0,1.6,0.3,3.2,0.8,4.6C1.3,20,1,21,1,22.1c0,3,2.2,5.4,5.1,5.8V16.2
			c-0.8,0.1-1.6,0.4-2.3,0.9c-0.1-0.7-0.2-1.4-0.2-2.2c0-6.1,4.9-11,11-11s11,4.9,11,11c0,0.7-0.1,1.5-0.2,2.2
			c-0.7-0.4-1.5-0.7-2.3-0.9v11.7c2.9-0.4,5.1-2.9,5.1-5.8c0-1.1-0.3-2.1-0.8-3C27.7,17.7,28,16.1,28,14.5L28,14.5z"/>
	</svg>

	<svg id="icon-head-home" viewBox="0 0 29 29">
		<path fill="#00ea89" d="M28.1,13.9L23.7,10V3.6h-3.8v3.1l-5.1-4.6c-0.2-0.2-0.5-0.2-1,0L0.7,13.9c0,0.2-0.2,0.5-0.2,0.7
			c0,0.3,0.3,0.5,0.8,0.5h3v11.2c0,0.5,0.3,0.8,0.8,0.8H11c0.3,0,0.8-0.2,0.8-0.5v-6.9h5.6v6.9c0,0.3,0.3,0.5,0.8,0.5h6.1
			c0.3,0,0.5-0.3,0.5-0.5V15.2h3.1c0.2,0,0.3,0,0.5-0.2C28.4,15.1,28.6,14.2,28.1,13.9z"/>
	</svg>

	<svg id="icon-return" viewBox="0 0 23 23">
		<polygon fill="#00ea89" points="19,4 19,11 8,11 8,6 1,12.5 8,19 8,14 22,14 22,4"/>
	</svg>

	<svg id="icon-bars" viewBox="0 0 32 9">
		<rect fill="#777" x="1" width="2" height="9"/>
		<rect fill="#777" x="5" width="2" height="9"/>
		<rect fill="#777" x="9" width="2" height="9"/>
		<rect fill="#777" x="13" width="2" height="9"/>
		<rect fill="#777" x="17" width="2" height="9"/>
		<rect fill="#777" x="21" width="2" height="9"/>
		<rect fill="#777" x="25" width="2" height="9"/>
		<rect fill="#777" x="29" width="2" height="9"/>
	</svg>

	<svg id="icon-volume" viewBox="0 0 17 17">
		<path fill="#fff" d="M2.1,6V11H5l4.3,3.5l0-12.1L5,6L2.1,6L2.1,6z M10.9,5.4c-0.3-0.2-0.7-0.2-0.9,0c-0.2,0.2-0.2,0.7,0,0.9l0,0
			c0.6,0.6,0.9,1.3,0.9,2.2c0,0.8-0.3,1.6-0.9,2.1c-0.3,0.3-0.3,0.7,0,0.9c0.1,0.1,0.3,0.2,0.5,0.2c0.2,0,0.3-0.1,0.5-0.2
			c0.8-0.8,1.3-1.9,1.3-3.1C12.2,7.3,11.7,6.2,10.9,5.4z M12.4,3.9c-0.3-0.2-0.7-0.2-0.9,0c-0.3,0.2-0.3,0.7,0,0.9
			C12.4,5.8,13,7,13,8.5c0,1.4-0.6,2.7-1.5,3.6c-0.3,0.2-0.3,0.7,0,0.9c0.1,0.1,0.3,0.2,0.5,0.2c0.2,0,0.3-0.1,0.5-0.2
			c1.2-1.2,1.9-2.8,1.9-4.5C14.3,6.7,13.5,5.1,12.4,3.9z"/>
	</svg>

	<svg id="icon-mute" viewBox="0 0 17 17">
		<path fill="#fff" d="M2.1,6V11H5l4.3,3.5l0-12.1L5,6L2.1,6L2.1,6z"/>
		<path fill="#fff" d="M13.3,8.5L14.7,7c0.2-0.2,0.2-0.6,0-0.8c-0.2-0.2-0.6-0.2-0.8,0l-1.5,1.5l-1.5-1.5c-0.2-0.2-0.6-0.2-0.8,0
			c-0.2,0.2-0.2,0.6,0,0.8l1.5,1.5l-1.5,1.5c-0.2,0.2-0.2,0.6,0,0.8c0.1,0.1,0.3,0.2,0.4,0.2s0.3-0.1,0.4-0.2l1.5-1.5l1.5,1.5
			c0.1,0.1,0.3,0.2,0.4,0.2s0.3-0.1,0.4-0.2c0.2-0.2,0.2-0.6,0-0.8L13.3,8.5z"/>
	</svg>

	<svg id="icon-clock" viewBox="0 0 15 15">
		<path fill="#fff" d="M7.5,14c3.6,0,6.5-2.9,6.5-6.5C14,3.9,11.1,1,7.5,1C3.9,1,1,3.9,1,7.5S3.9,14,7.5,14z M7.5,2.3
			c2.9,0,5.2,2.3,5.2,5.2s-2.3,5.2-5.2,5.2s-5.2-2.3-5.2-5.2S4.6,2.3,7.5,2.3z"/>
		<path fill="#fff" d="M6.9,7.6C6.9,7.6,6.9,7.7,6.9,7.6c0,0.1,0,0.1,0,0.1c0,0,0,0,0,0.1c0,0,0,0,0,0.1C7,7.9,7,7.9,7,8c0,0,0,0,0,0
			l2.6,2.6c0.3,0.3,0.7,0.3,0.9,0c0.3-0.3,0.3-0.7,0-0.9L8.2,7.2V4.6C8.2,4.3,7.9,4,7.5,4C7.1,4,6.8,4.3,6.8,4.6v2.9
			C6.8,7.5,6.9,7.6,6.9,7.6z"/>
	</svg>

	<svg id="icon-thumb" viewBox="0 0 15 15">
		<path fill="#fff" d="M3.2,11.8c0-0.3-0.2-0.5-0.5-0.5s-0.5,0.2-0.5,0.5c0,0.3,0.2,0.5,0.5,0.5S3.2,12.1,3.2,11.8z M12.9,7
			c0-0.6-0.5-1.1-1.1-1.1H8.8c0-1,0.8-1.7,0.8-2.7c0-1-0.2-1.6-1.3-1.6C7.8,2.1,8,3.4,7.2,4.3C7,4.5,6.8,4.8,6.6,5
			C6.2,5.5,5.2,7,4.6,7H4.3v5.4h0.3c0.5,0,1.2,0.3,1.7,0.5c0.9,0.3,1.9,0.6,2.9,0.6h1c0.9,0,1.6-0.4,1.6-1.4c0-0.2,0-0.3,0-0.5
			c0.4-0.2,0.5-0.7,0.5-1.1c0-0.2-0.1-0.4-0.2-0.6c0.3-0.3,0.4-0.6,0.4-1c0-0.3-0.1-0.7-0.3-0.9C12.6,8,12.9,7.3,12.9,7z M13.9,7
			c0,0.5-0.1,1-0.4,1.4c0.1,0.2,0.1,0.4,0.1,0.6c0,0.4-0.1,0.8-0.3,1.2c0,0.1,0,0.2,0,0.4c0,0.5-0.2,1.1-0.5,1.5
			c0,1.6-1.1,2.5-2.6,2.5H9.1c-1.2,0-2.3-0.4-3.4-0.7c-0.2-0.1-0.9-0.3-1.2-0.3H2.1c-0.6,0-1.1-0.5-1.1-1.1V7c0-0.6,0.5-1.1,1.1-1.1
			h2.3c0.3-0.2,0.9-1,1.1-1.3c0.3-0.4,0.6-0.7,0.9-1.1C7,3,6.7,1.7,7.5,0.8C7.7,0.6,8,0.5,8.3,0.5c0.9,0,1.7,0.3,2.1,1.1
			c0.3,0.5,0.3,1,0.3,1.6c0,0.6-0.2,1.1-0.4,1.6h1.5C12.9,4.8,13.9,5.8,13.9,7z"/>
	</svg>

	<svg id="icon-heart" viewBox="0 0 17 17">
		<path fill="#fff" d="M15,6c0-2.4-1.6-2.9-3-2.9c-1.3,0-2.7,1.4-3.1,1.9C8.7,5.2,8.3,5.2,8.1,5C7.6,4.5,6.2,3.1,5,3.1
			C3.6,3.1,2,3.6,2,6c0,1.5,1.6,3,1.6,3l4.9,4.7L13.4,9C13.4,8.9,15,7.5,15,6z M16.1,6c0,2-1.9,3.7-1.9,3.8l-5.3,5.1
			C8.8,14.9,8.6,15,8.5,15s-0.3-0.1-0.4-0.2L2.9,9.7C2.8,9.7,0.9,8,0.9,6c0-2.5,1.5-4,4-4c1.5,0,2.9,1.2,3.5,1.8C9.2,3.2,10.6,2,12,2
			C14.6,2,16.1,3.5,16.1,6z"/>
	</svg>

	<svg id="icon-heart-full" viewBox="0 0 17 17">
		<path fill="#fff" d="M16.1,6c0,2-1.9,3.7-1.9,3.8l-5.3,5.1C8.8,14.9,8.6,15,8.5,15s-0.3-0.1-0.4-0.2L2.9,9.7C2.8,9.7,0.9,8,0.9,6
			c0-2.5,1.5-4,4-4c1.5,0,2.9,1.2,3.5,1.8C9.2,3.2,10.6,2,12,2C14.6,2,16.1,3.5,16.1,6z"/>
	</svg>

	<svg id="image-placeholder" viewBox="0 0 55 55">
		<path fill="#111" d="M19.4,19.5c0,2.7-2.2,4.9-4.9,4.9s-4.9-2.2-4.9-4.9s2.2-4.9,4.9-4.9S19.4,16.8,19.4,19.5z M45.4,29.3v11.1H9.6
			v-4.6l8.1-8.1l4.1,4.1l13-13L45.4,29.3z M47.8,11.4H7.2c-0.4,0-0.8,0.4-0.8,0.8v30.6c0,0.4,0.4,0.8,0.8,0.8h40.7
			c0.4,0,0.8-0.4,0.8-0.8V12.2C48.7,11.8,48.3,11.4,47.8,11.4z M51.9,12.2v30.6c0,2.2-1.8,4.1-4.1,4.1H7.2c-2.2,0-4.1-1.8-4.1-4.1
			V12.2c0-2.2,1.8-4.1,4.1-4.1h40.7C50.1,8.1,51.9,10,51.9,12.2z"/>
	</svg>

	<svg id="icon-times" viewBox="0 0 15 15">
		<polygon fill="#fff" points="12.9,2.9 12.1,2.1 7.5,6.6 2.9,2.1 2.1,2.9 6.6,7.5 2.1,12.1 2.9,12.9 7.5,8.4 12.1,12.9 12.9,12.1 8.4,7.5 "/>
	</svg>

	<svg id="icon-navigation" viewBox="0 0 13 13">
		<path fill="#fff" d="M4.9,10.4c-0.2,0-0.3-0.1-0.5-0.2L1.2,7C1.1,6.8,1.1,6.7,1.1,6.5c0-0.2,0.1-0.3,0.2-0.5l3.2-3.2
			c0.3-0.3,0.7-0.3,0.9,0c0.3,0.3,0.3,0.7,0,0.9L2.6,6.5l2.8,2.8c0.3,0.3,0.3,0.7,0,0.9C5.3,10.3,5.1,10.4,4.9,10.4z"/>
		<path fill="#fff" d="M8.1,10.4c-0.2,0-0.3-0.1-0.5-0.2c-0.3-0.3-0.3-0.7,0-0.9l2.7-2.7L7.6,3.8c-0.3-0.3-0.3-0.7,0-0.9
			c0.3-0.3,0.7-0.3,0.9,0L11.8,6c0.1,0.1,0.2,0.3,0.2,0.5c0,0.2-0.1,0.3-0.2,0.5l-3.2,3.2C8.4,10.3,8.3,10.4,8.1,10.4z"/>
	</svg>

	<svg id="icon-chevron-left" viewBox="0 0 13 13">
		<path fill="#fff" d="M8.9,12c-0.2,0-0.4-0.1-0.6-0.2L3.6,7C3.4,6.9,3.3,6.7,3.3,6.5c0-0.2,0.1-0.4,0.2-0.6l4.7-4.7
			c0.3-0.3,0.8-0.3,1.1,0c0.3,0.3,0.3,0.8,0,1.1L5.2,6.5l4.2,4.2c0.3,0.3,0.3,0.8,0,1.1C9.3,11.9,9.1,12,8.9,12z"/>
	</svg>

	<svg id="icon-chevron-right" viewBox="0 0 13 13">
		<path fill="#fff" d="M4.2,12c-0.2,0-0.4-0.1-0.5-0.2c-0.3-0.3-0.3-0.8,0-1.1l4.1-4.1L3.6,2.4c-0.3-0.3-0.3-0.8,0-1.1
			C3.9,1,4.4,1,4.7,1.3L9.4,6c0.1,0.1,0.2,0.3,0.2,0.5c0,0.2-0.1,0.4-0.2,0.5l-4.7,4.7C4.6,11.9,4.4,12,4.2,12z"/>
	</svg>

</svg>