<svg xmlns="http://www.w3.org/2000/svg" width="0" height="0">

	<svg id="icon-play" viewBox="0 0 13 13">
		<path fill="#fff" d="M11.9,6.7L2.4,12C2.2,12.1,2,12,2,11.7V1.3C2,1,2.2,0.9,2.4,1l9.4,5.3C12.1,6.4,12.1,6.6,11.9,6.7z"/>
	</svg>

	<svg id="icon-pause" viewBox="0 0 13 13">
		<path fill="#fff" d="M5,11.6C5,11.8,4.8,12,4.6,12H2.3c-0.2,0-0.3-0.2-0.3-0.3V1.4C1.9,1.2,2.1,1,2.3,1h2.3C4.8,1,5,1.2,5,1.4V11.6z "/>
		<path fill="#fff" d="M11,11.6c0,0.2-0.2,0.3-0.3,0.3H8.3C8.1,12,8,11.8,8,11.6V1.4C8,1.2,8.1,1,8.3,1h2.3C10.8,1,11,1.2,11,1.4V11.6z"/>
	</svg>

	<svg id="icon-previous" viewBox="0 0 13 13">
		<path fill="#fff" d="M3.3,6.3l8.3-4.6c0.2-0.1,0.4,0,0.4,0.2v9.2c0,0.2-0.2,0.3-0.4,0.2L3.3,6.7C3.1,6.6,3.1,6.4,3.3,6.3z"/>
		<path fill="#fff" d="M1,9.5C1,9.8,1.2,10,1.5,10h1C2.8,10,3,9.8,3,9.5v-6c0-0.3-0.2-0.5-0.5-0.5h-1C1.2,2.9,1,3.2,1,3.4
			C1,3.4,1,9.5,1,9.5z"/>
	</svg>

	<svg id="icon-next" viewBox="0 0 13 13">
		<path fill="#fff" d="M9.7,6.7l-8.3,4.6c-0.2,0.1-0.4,0-0.4-0.2V1.9c0-0.2,0.2-0.3,0.4-0.2l8.3,4.6C9.9,6.4,9.9,6.6,9.7,6.7z"/>
		<path fill="#fff" d="M12,3.5C12,3.2,11.8,3,11.5,3h-1C10.2,3,10,3.2,10,3.5v6c0,0.3,0.2,0.5,0.5,0.5h1c0.3,0,0.5-0.2,0.5-0.5
			C12,9.6,12,3.5,12,3.5z"/>
	</svg>

	<svg id="icon-random" viewBox="0 0 13 13">
		<path fill="#fff" d="M9.3,4.7h0.5v1.6L12,4L9.8,1.8v1.3H9.3c-2,0-3.2,1.5-4.2,2.8c-0.9,1.2-1.7,2.2-3,2.2H1v1.5h1.1
			c2,0,3.2-1.5,4.2-2.8C7.2,5.7,8,4.7,9.3,4.7L9.3,4.7z M4,5.7c0.1-0.1,0.2-0.2,0.3-0.3C4.5,5,4.7,4.7,4.9,4.4
			C4.2,3.8,3.3,3.3,2.2,3.3H1v1.5h1.1C2.9,4.8,3.5,5.1,4,5.7z M9.8,8.3H9.3c-0.8,0-1.4-0.4-1.9-1C7.3,7.4,7.3,7.5,7.2,7.6
			C7,7.9,6.7,8.2,6.4,8.6c0.7,0.7,1.6,1.3,2.9,1.3h0.5v1.3L12,9L9.8,6.7V8.3L9.8,8.3z"/>
	</svg>

	<svg id="icon-repeat" viewBox="0 0 13 13">
		<path fill="#fff" d="M10.5,3.2L8.1,0.8L7.2,1.6l1.1,1.1l-3.6,0c-1,0-1.9,0.4-2.7,1.1C1.4,4.5,1,5.5,1,6.5l1.2,0
			c0-1.4,1.2-2.6,2.6-2.6h3.4l-1,1l0.8,0.8L10.5,3.2z M4.9,7.3L2.5,9.8l2.5,2.5l0.8-0.8l-1.1-1.1l3.6,0c1,0,1.9-0.4,2.7-1.1
			C11.6,8.5,12,7.5,12,6.5l-1.2,0c0,1.4-1.2,2.6-2.6,2.6H4.8l1-1L4.9,7.3z"/>
	</svg>

	<svg id="icon-home" viewBox="0 0 17 17">
		<path fill="#00ea89" d="M16.8,8.1l-2.7-2.4V1.8h-2.3v1.9L8.7,0.9c-0.1-0.1-0.3-0.1-0.6,0l-8,7.2C0.1,8.2,0,8.4,0,8.5
			c0,0.2,0.2,0.3,0.5,0.3h1.8v6.8c0,0.3,0.2,0.5,0.5,0.5h3.6c0.2,0,0.5-0.1,0.5-0.3v-4.2h3.4v4.2c0,0.2,0.2,0.3,0.5,0.3h3.7
			c0.2,0,0.3-0.2,0.3-0.3V8.9h1.9c0.1,0,0.2,0,0.3-0.1C17,8.8,17.1,8.3,16.8,8.1z"/>
	</svg>

	<svg id="icon-browse" viewBox="0 0 17 17">
		<path fill="#00ea89" d="M15.3,4.8H1.7C1.3,4.8,1,5.2,1,5.6l1,8.7c0,0.4,0.4,0.6,0.7,0.6h11.6c0.3,0,0.7-0.3,0.7-0.6l1-8.7
			C16,5.2,15.7,4.8,15.3,4.8z M8.5,12.7c-1.5,0-2.8-1.3-2.8-2.8S7,7.1,8.5,7.1s2.8,1.3,2.8,2.8S10,12.7,8.5,12.7z"/>
		<path fill="#00ea89" d="M2.3,4h12.3l0.1-1.3c0-0.4-0.2-0.7-0.5-0.7H2.8c-0.3,0-0.6,0.3-0.5,0.7L2.3,4z"/>
	</svg>

	<svg id="icon-radio" viewBox="0 0 17 17">
		<path fill="#00ea89" d="M8.5,6.4c-1.2,0-2.1,0.9-2.1,2.1c0,1.2,0.9,2.1,2.1,2.1c1.1,0,2.1-0.9,2.1-2.1C10.6,7.3,9.7,6.4,8.5,6.4z"/>
		<path fill="#00ea89" d="M13.8,3.2c-0.3-0.3-0.8-0.3-1.1,0c-0.3,0.3-0.3,0.8,0,1.1c2.3,2.3,2.3,6.1,0,8.5c-0.3,0.3-0.3,0.8,0,1.1
			c0.1,0.1,0.3,0.2,0.5,0.2c0.2,0,0.4-0.1,0.5-0.2C16.7,10.9,16.7,6.1,13.8,3.2z"/>
		<path fill="#00ea89" d="M11.9,5.1c-0.3-0.3-0.8-0.3-1.1,0c-0.3,0.3-0.3,0.8,0,1.1c0.6,0.6,1,1.5,1,2.3c0,0.9-0.3,1.7-1,2.3
			c-0.3,0.3-0.3,0.8,0,1.1c0.1,0.1,0.3,0.2,0.5,0.2c0.2,0,0.4-0.1,0.5-0.2c0.9-0.9,1.4-2.1,1.4-3.4C13.3,7.2,12.8,6,11.9,5.1z"/>
		<path fill="#00ea89" d="M2.5,8.5c0-1.6,0.6-3.1,1.7-4.2c0.3-0.3,0.3-0.8,0-1.1C4,2.9,3.5,2.9,3.2,3.2C1.8,4.6,1,6.5,1,8.5
			s0.8,3.9,2.2,5.3C3.3,13.9,3.5,14,3.7,14s0.4-0.1,0.5-0.2c0.3-0.3,0.3-0.8,0-1.1C3.1,11.6,2.5,10.1,2.5,8.5z"/>
		<path fill="#00ea89" d="M5.2,8.5c0-0.9,0.3-1.7,1-2.3c0.3-0.3,0.3-0.8,0-1.1c-0.3-0.3-0.8-0.3-1.1,0C4.2,6,3.7,7.2,3.7,8.5
			s0.5,2.5,1.4,3.4c0.1,0.1,0.3,0.2,0.5,0.2c0.2,0,0.4-0.1,0.5-0.2c0.3-0.3,0.3-0.8,0-1.1C5.6,10.2,5.2,9.4,5.2,8.5z"/>
	</svg>

	<svg id="icon-queue" viewBox="0 0 17 17">
		<path fill="#00ea89" d="M1.3,6.5c0.1,0.1,0.2,0.1,0.3,0.1c0.1,0,0.2,0,0.3-0.1l3.2-1.9c0.1-0.1,0.2-0.1,0.2-0.2C5.6,4,5.5,3.6,5.2,3.5
			L2,1.5C1.9,1.4,1.8,1.4,1.7,1.4C1.3,1.4,1,1.7,1,2.1V6C1,6.2,1.1,6.4,1.3,6.5z"/>
		<rect fill="#00ea89" x="7" y="2" width="9" height="1"/>
		<rect fill="#00ea89" x="7" y="5" width="9" height="1"/>
		<rect fill="#00ea89" x="1" y="8" width="15" height="1"/>
		<rect fill="#00ea89" x="1" y="11" width="15" height="1"/>
		<rect fill="#00ea89" x="1" y="14" width="15" height="1"/>
	</svg>

	<svg id="icon-devices" viewBox="0 0 17 17">
		<path fill="#00ea89" d="M9,10H2V3h11.6l0,2h0.9l0-2.2c0-0.4-0.4-0.8-0.8-0.8H1.8C1.4,2,1,2.4,1,2.8v8.4C1,11.6,1.4,12,1.8,12h4.9
			l-0.2,0.9c0,0.1-0.1,0.2-0.3,0.2H5.7c-0.2,0-0.3,0.1-0.3,0.3v0.3c0,0.2,0.1,0.3,0.3,0.3H9V10z M7.9,11.3c-0.2,0-0.4-0.2-0.4-0.4
			s0.2-0.4,0.4-0.4c0.2,0,0.4,0.2,0.4,0.4S8.1,11.3,7.9,11.3z"/>
		<path fill="#00ea89" d="M16,12.4l0-5.5C16,6.4,15.6,6,15.1,6h-4.2C10.4,6,10,6.4,10,6.9l0,7.2c0,0.5,0.4,0.9,0.9,0.9h4.2
			c0.5,0,0.9-0.4,0.9-0.9V12.4z M12.7,6.3h0.6c0.2,0,0.3,0.1,0.3,0.3c0,0.2-0.1,0.3-0.3,0.3h-0.6c-0.2,0-0.3-0.1-0.3-0.3
			C12.4,6.4,12.6,6.3,12.7,6.3z M13,14.7c-0.5,0-0.9-0.4-0.9-0.9c0-0.5,0.4-0.9,0.9-0.9c0.5,0,0.9,0.4,0.9,0.9
			C13.9,14.3,13.5,14.7,13,14.7z"/>
		<circle fill="#00ea89" cx="13" cy="13.8" r="0.3"/>
	</svg>

	<svg id="icon-history" viewBox="0 0 17 17">
		<path fill="#00ea89" d="M16,8.5c0,4.1-3.4,7.5-7.5,7.5c-2.2,0-4.3-1-5.8-2.7c-0.1-0.1-0.1-0.3,0-0.4l1.3-1.3c0.1-0.1,0.2-0.1,0.2-0.1
			c0.1,0,0.2,0,0.2,0.1c1,1.2,2.4,1.9,3.9,1.9c2.7,0,5-2.2,5-5s-2.2-5-5-5C7.2,3.5,6,4,5.1,4.8l1.3,1.3c0.2,0.2,0.2,0.4,0.1,0.7
			C6.5,7.1,6.3,7.3,6,7.3H1.6C1.3,7.3,1,7,1,6.6V2.3C1,2,1.2,1.8,1.4,1.7c0.2-0.1,0.5,0,0.7,0.1l1.3,1.3C4.7,1.8,6.6,1,8.5,1
			C12.6,1,16,4.4,16,8.5z M9.7,5.7v4.4c0,0.2-0.1,0.3-0.3,0.3H6.3c-0.2,0-0.3-0.1-0.3-0.3V9.4c0-0.2,0.1-0.3,0.3-0.3h2.2V5.7
			c0-0.2,0.1-0.3,0.3-0.3h0.6C9.6,5.4,9.7,5.5,9.7,5.7z"/>
	</svg>

	<svg id="icon-library" viewBox="0 0 17 17">
		<path fill="#00ea89" d="M3.3,14.9H1.5c-0.2,0-0.4-0.2-0.4-0.4v-12c0-0.2,0.2-0.4,0.4-0.4h1.8c0.2,0,0.4,0.2,0.4,0.4v12
			C3.7,14.7,3.5,14.9,3.3,14.9z"/>
		<path fill="#00ea89" d="M7.8,14.9H6c-0.2,0-0.4-0.2-0.4-0.4v-12c0-0.2,0.2-0.4,0.4-0.4h1.8c0.2,0,0.4,0.2,0.4,0.4v12
			C8.3,14.7,8.1,14.9,7.8,14.9z"/>
		<path fill="#00ea89" d="M15.7,14.3L14,14.9c-0.2,0.1-0.5,0-0.6-0.3l-4-11.3c-0.1-0.2,0-0.5,0.3-0.6l1.7-0.6c0.2-0.1,0.5,0,0.6,0.3
			l4,11.3C16,13.9,15.9,14.2,15.7,14.3z"/>
	</svg>

	<svg id="icon-search" viewBox="0 0 17 17">
		<path fill="#00ea89" d="M11.4,7.3c0-2.2-1.8-4-4-4s-4,1.8-4,4s1.8,4,4,4S11.4,9.6,11.4,7.3L11.4,7.3z M16,14.8c0,0.6-0.5,1.2-1.2,1.2
			c-0.3,0-0.6-0.1-0.8-0.3l-3.1-3.1c-1.1,0.7-2.3,1.1-3.6,1.1C3.8,13.7,1,10.9,1,7.3S3.8,1,7.3,1s6.3,2.8,6.3,6.3
			c0,1.3-0.4,2.5-1.1,3.6l3.1,3.1C15.9,14.2,16,14.5,16,14.8L16,14.8z"/>
	</svg>

	<svg id="icon-rounded-corner" viewBox="0 0 4 4">
		<path d="M0,0v4h4C1.8,4,0,2.2,0,0z"/>
	</svg>




	<svg id="icon-genre" viewBox="0 0 500 500">
		<path fill="#00ea89" d="M158.8,276.1h-26.1v182.4h26.1c7.2,0,13-5.9,13-13V289.1C171.8,281.9,166,276.1,158.8,276.1z"/>
		<path fill="#00ea89" d="M341.2,276.1c-7.2,0-13,5.9-13,13v156.3c0,7.2,5.9,13,13,13h26.1V276.1H341.2z"/>
		<path fill="#00ea89" d="M458.4,250c0-115.1-93.3-208.4-208.4-208.4S41.6,134.9,41.6,250c0,25,4.4,49,12.5,71.2c-7.9,13.5-12.5,29.3-12.5,46.1 c0,45.9,34,83.9,78.2,90.2V277c-13,1.9-25.1,6.4-35.7,13.2c-2.2-10.9-3.4-22.1-3.4-33.7C80.7,163,156.5,87.2,250,87.2 S419.3,163,419.3,256.5c0,11.5-1.2,22.8-3.3,33.7c-10.6-6.7-22.7-11.3-35.7-13.2v180.5c44.2-6.3,78.2-44.3,78.2-90.2 c0-16.8-4.5-32.5-12.5-46.1C454,299,458.4,275,458.4,250L458.4,250z"/>
	</svg>

	<svg id="icon-return" viewBox="0 0 500 500">
		<polygon fill="#00ea89" points="398.9,90.3 398.9,105.5 398.9,221.6 182.3,221.6 182.3,116 47,251.4 182.3,386.7 182.3,275.7 453,275.7 453,90.3"/>
	</svg>

	<svg id="icon-bars" viewBox="0 0 500 500">
		<style type="text/css">
			.st0{fill:none;stroke:#777;stroke-width:35;stroke-linejoin:round;}
		</style>
		<line class="st0" x1="20.2" y1="174" x2="20.2" y2="326"/>
		<line class="st0" x1="85.9" y1="174" x2="85.9" y2="326"/>
		<line class="st0" x1="151.5" y1="174" x2="151.5" y2="326"/>
		<line class="st0" x1="217.2" y1="174" x2="217.2" y2="326"/>
		<line class="st0" x1="282.8" y1="174" x2="282.8" y2="326"/>
		<line class="st0" x1="348.5" y1="174" x2="348.5" y2="326"/>
		<line class="st0" x1="414.1" y1="174" x2="414.1" y2="326"/>
		<line class="st0" x1="479.8" y1="174" x2="479.8" y2="326"/>
	</svg>

	<svg id="icon-volume" viewBox="0 0 500 500">
		<path fill="#fff" d="M39.8,162.9v174.3h99.2l148.5,121.9l0.1-418.1l-148.6,122H39.8L39.8,162.9z M344.6,142.9c-8.7-8.6-22.5-8.6-31.3,0.1 c-8.6,8.6-8.6,22.6,0,31.2v0c19,19.1,30.8,45.2,30.8,74.3c0,29-11.7,55.1-30.8,74.1c-8.7,8.7-8.7,22.6,0,31.3 c4.3,4.3,9.9,6.5,15.6,6.5c5.7,0,11.5-2.2,15.6-6.5c27-27,43.7-64.4,43.7-105.4C388.4,207.3,371.5,169.8,344.6,142.9z M395.3,92.2 c-8.7-8.6-22.5-8.6-31.2,0s-8.7,22.6,0,31.2c32,32,52,76.1,52,125c0,48.8-19.8,92.9-51.9,124.9c-8.7,8.6-8.7,22.5,0,31.2 c4.1,4.3,10,6.5,15.6,6.5c5.7,0,11.5-2.2,15.6-6.5c40-40,64.9-95.2,64.8-156.1C460,187.5,435.2,132.1,395.3,92.2z"/>
	</svg>

	<svg id="icon-mute" viewBox="0 0 500 500">
		<path fill="#fff" d="M39.8,162.9v174.3H139l148.5,121.9L287.6,41L139,163H39.8V162.9z"/>
		<path fill="#fff" d="M425.3,248.4l51.5-51.5c7.8-7.8,7.8-20.5,0-28.3c-7.8-7.8-20.5-7.8-28.3,0L397,220.1l-51.5-51.5c-7.8-7.8-20.5-7.8-28.3,0 c-7.8,7.8-7.8,20.5,0,28.3l51.5,51.5l-51.5,51.5c-7.8,7.8-7.8,20.5,0,28.3c3.9,3.9,9,5.9,14.1,5.9s10.2-2,14.1-5.9l51.5-51.5 l51.4,51.4c3.9,3.9,9,5.9,14.1,5.9s10.2-2,14.1-5.9c7.8-7.8,7.8-20.5,0-28.3L425.3,248.4z"/>
	</svg>

	<svg id="icon-clock" viewBox="0 0 500 500">
		<path fill="#fff" d="M250,465.7c118.9,0,215.7-96.7,215.7-215.7c0-118.9-96.7-215.7-215.7-215.7C131.1,34.3,34.3,131.1,34.3,250 C34.3,368.9,131.1,465.7,250,465.7z M250,77.5c95.1,0,172.5,77.4,172.5,172.5c0,95.1-77.4,172.5-172.5,172.5S77.5,345.1,77.5,250 S154.9,77.5,250,77.5z"/>
		<path fill="#fff" d="M228.9,254.2c0.1,0.6,0.4,1.2,0.5,1.8c0.2,0.8,0.4,1.5,0.7,2.3c0.3,0.7,0.7,1.3,1,2c0.3,0.6,0.6,1.2,0.9,1.7 c0.7,1.1,1.6,2.1,2.5,3c0.1,0.1,0.1,0.2,0.2,0.3l86.3,86.3c8.4,8.4,22.1,8.4,30.5,0c8.4-8.4,8.4-22.1,0-30.5l-79.9-80v-86.8 c0-11.9-9.7-21.6-21.6-21.6s-21.6,9.7-21.6,21.6V250C228.4,251.4,228.6,252.8,228.9,254.2z"/>
	</svg>

	<svg id="icon-thumb" viewBox="0 0 500 500">
		<path fill="#fff" d="M116.8,383.2c0-9.1-7.5-16.7-16.7-16.7s-16.7,7.5-16.7,16.7c0,9.1,7.5,16.7,16.7,16.7S116.8,392.3,116.8,383.2z M416.5,233.3c0-17.7-15.9-33.3-33.3-33.3h-91.6c0-30.4,25-52.6,25-83.3c0-30.4-6-50-41.6-50c-16.7,16.9-8.1,56.7-33.3,83.3 c-7.3,7.5-13.5,15.6-20,23.7c-11.7,15.1-42.7,59.6-63.2,59.6h-8.3v166.5h8.3c14.6,0,38.5,9.4,52.6,14.3c28.6,9.9,58.3,19,89,19h31.5 c29.4,0,50-11.7,50-43.4c0-4.9-0.5-9.9-1.3-14.6c10.9-6,16.9-20.8,16.9-32.8c0-6.2-1.6-12.5-4.7-18c8.8-8.3,13.8-18.7,13.8-31 c0-8.3-3.6-20.6-9.1-26.8C409.2,266.4,416.5,243,416.5,233.3z M449.8,233.1c0,15.1-4.4,29.9-12.7,42.4c1.6,5.7,2.3,12,2.3,18 c0,13-3.4,26-9.9,37.5c0.5,3.6,0.8,7.5,0.8,11.2c0,16.7-5.5,33.3-15.6,46.3c0.5,49.2-33,78.1-81.2,78.1H300 c-36.9,0-71.3-10.9-105.6-22.9c-7.5-2.6-28.6-10.4-35.9-10.4H83.5c-18.5,0-33.3-14.8-33.3-33.3V233.3c0-18.5,14.8-33.3,33.3-33.3 h71.3c10.1-6.8,27.8-30.2,35.6-40.3c8.8-11.4,18-22.6,27.8-33.3c15.6-16.7,7.3-57.8,33.3-83.3c6.2-6,14.6-9.6,23.4-9.6 c27.1,0,53.1,9.6,65.8,34.9c8.1,15.9,9.1,31,9.1,48.4c0,18.2-4.7,33.8-12.5,50h45.8C419.1,166.7,449.8,197.2,449.8,233.1z"/>
	</svg>

	<svg id="image-placeholder" viewBox="0 0 500 500">
		<path fill="#111" d="M170,166.5c0,26.5-21.5,48-48,48s-48-21.5-48-48s21.5-48,48-48S170,140,170,166.5z M426,262.6v108.9H74v-44.9 l80-80l40,40l128-128L426,262.6z M450,86.6H50c-4.3,0-8,3.8-8,8v300.9c0,4.3,3.8,8,8,8h400c4.3,0,8-3.8,8-8V94.6 C458,90.4,454.2,86.6,450,86.6z M490,94.6v300.9c0,22-18,40-40,40H50c-22,0-40-18-40-40V94.6c0-22,18-40,40-40h400 C472,54.6,490,72.6,490,94.6z"/>
	</svg>

	<svg id="icon-times" viewBox="0 0 500 500">
		<style type="text/css">
			.st0{fill:none;stroke:#fff;stroke-width:40;}
		</style>
		<line class="st0" x1="85.2" y1="414.8" x2="414.8" y2="85.2"/>
		<line class="st0" x1="85.2" y1="85.2" x2="414.8" y2="414.8"/>
	</svg>

	<svg id="icon-heart" viewBox="0 0 17 17">
		<path fill="#fff" d="M15,6c0-2.4-1.6-2.9-3-2.9c-1.3,0-2.7,1.4-3.1,1.9C8.7,5.2,8.3,5.2,8.1,5C7.6,4.5,6.2,3.1,5,3.1
			C3.6,3.1,2,3.6,2,6c0,1.5,1.6,3,1.6,3l4.9,4.7L13.4,9C13.4,8.9,15,7.5,15,6z M16.1,6c0,2-1.9,3.7-1.9,3.8l-5.3,5.1
			C8.8,14.9,8.6,15,8.5,15s-0.3-0.1-0.4-0.2L2.9,9.7C2.8,9.7,0.9,8,0.9,6c0-2.5,1.5-4,4-4c1.5,0,2.9,1.2,3.5,1.8C9.2,3.2,10.6,2,12,2
			C14.6,2,16.1,3.5,16.1,6z"/>
	</svg>

	<svg id="icon-heart-full" viewBox="0 0 17 17">
		<path fill="#fff" d="M16.1,6c0,2-1.9,3.7-1.9,3.8l-5.3,5.1C8.8,14.9,8.6,15,8.5,15s-0.3-0.1-0.4-0.2L2.9,9.7C2.8,9.7,0.9,8,0.9,6
			c0-2.5,1.5-4,4-4c1.5,0,2.9,1.2,3.5,1.8C9.2,3.2,10.6,2,12,2C14.6,2,16.1,3.5,16.1,6z"/>
	</svg>

	<svg id="icon-navigation" viewBox="0 0 500 500">
		<style type="text/css">
			.st0{fill:none;stroke:#FFFFFF;stroke-width:57;stroke-linecap:round;stroke-linejoin:round;}
		</style>
		<polyline class="st0" points="181.2,110.3 41.7,249.8 182.3,389.7 "/>
		<polyline class="st0" points="318.8,389.7 458.3,250.2 317.7,110.3 "/>
	</svg>

	<svg id="icon-chevron-left" viewBox="0 0 500 500">
		<style type="text/css">
			.st0{fill:none;stroke:#fff;stroke-width:64;stroke-linecap:round;stroke-linejoin:round;}
		</style>
		<polyline class="st0" points="345.6,57 152.8,249.7 347.2,443 "/>
	</svg>

	<svg id="icon-chevron-right" viewBox="0 0 500 500">
		<style type="text/css">
			.st0{fill:none;stroke:#fff;stroke-width:64;stroke-linecap:round;stroke-linejoin:round;}
		</style>
		<polyline class="st0" points="154.4,443 347.2,250.3 152.8,57 "/>
	</svg>

</svg>