<svg xmlns="http://www.w3.org/2000/svg" width="0" height="0">
	<svg id="icon-play" viewBox="0 0 500 500">
		<path fill="#fff" d="M481.811,263.495L56.673,499.753c-9.924,5.443-17.928,0.642-17.928-10.562V17.952c0-11.205,8.004-16.007,17.928-10.564 L481.81,243.647C491.734,249.089,491.734,258.053,481.811,263.495z"/>
	</svg>

	<svg id="icon-pause" viewBox="0 0 500 500">
		<path fill="#fff" d="M137.5,482c0,8.285-6.716,15-15,15h-102c-8.284,0-15-6.715-15-15V34c0-8.283,6.716-15,15-15h102c8.284,0,15,6.717,15,15V482 z"/>
		<path fill="#fff" d="M414.5,482c0,8.285-6.716,15-15,15h-102c-8.284,0-15-6.715-15-15V34c0-8.283,6.716-15,15-15h102c8.284,0,15,6.717,15,15V482 z"/>
	</svg>

	<svg id="icon-previous" viewBox="0 0 500 500">
		<path fill="#fff" d="M112.549,241.619L471.603,42.085c8.383-4.598,15.142-0.541,15.142,8.922v397.987c0,9.463-6.759,13.519-15.142,8.923 L112.549,258.382C104.168,253.786,104.168,246.216,112.549,241.619z"/>
		<path fill="#fff" d="M13.255,396.001c0,11.945,9.684,21.63,21.63,21.63h49.748c11.946,0,21.63-9.685,21.63-21.63V103.999 c0-11.947-9.684-21.629-21.63-21.629H34.885c-11.946,0-21.63,9.682-21.63,21.629V396.001z"/>
	</svg>

	<svg id="icon-next" viewBox="0 0 500 500">
		<path fill="#fff" d="M387.45,258.382L28.396,457.917c-8.383,4.596-15.142,0.54-15.142-8.923V51.007c0-9.463,6.759-13.52,15.142-8.922 L387.45,241.619C395.831,246.216,395.831,253.786,387.45,258.382z"/>
		<path fill="#fff" d="M486.744,396.001c0,11.945-9.684,21.63-21.63,21.63h-49.748c-11.946,0-21.63-9.685-21.63-21.63V103.999 c0-11.947,9.684-21.629,21.63-21.629h49.748c11.946,0,21.63,9.682,21.63,21.629V396.001z"/>
	</svg>

	<svg id="icon-random" viewBox="0 0 500 500">
		<path fill="#fff" d="M368.157,173.301h21.345v66.398L482,146.342l-92.521-93.379v55.378h-21.344c-85.701,0-134.004,63.521-176.645,119.526 c-38.327,50.391-71.457,93.937-124.956,93.937H18v64.938h48.558c85.7,0,134.003-63.476,176.646-119.526 C281.529,216.801,314.658,173.301,368.157,173.301L368.157,173.301z M143.512,214.226c3.666-4.71,7.332-9.558,11.066-14.454 c9.049-11.924,18.652-24.476,29.047-37.027c-30.67-28.628-67.629-49.74-117.067-49.74H18v64.937h48.558 C97.344,177.94,121.355,192.395,143.512,214.226z M389.479,326.421h-21.344c-32.643,0-57.698-16.263-80.991-40.321 c-2.32,3.039-4.664,6.124-7.03,9.21c-10.231,13.456-21.228,27.863-33.385,42.178c31.459,30.717,69.601,53.917,121.383,53.917h21.344 v55.634L482,353.657l-92.521-93.38V326.421L389.479,326.421z"/>
	</svg>

	<svg id="icon-repeat" viewBox="0 0 500 500">
		<path fill="#fff" d="M413.145,116.855l-99.858-99.857L280,50.283l46.642,46.643L180.07,96.967c-40.783-0.041-79.129,15.803-108.013,44.688 c-28.867,28.867-44.786,67.271-44.761,108.087l47.049-0.049c-0.033-56.488,49.23-105.751,105.691-105.691h139.39L280,183.428 l33.286,33.287L413.145,116.855z M186.714,283.287l-99.858,99.857l99.858,99.857L220,449.717l-46.643-46.643l146.563-0.033 c40.783,0.041,79.129-15.803,108.013-44.686c28.876-28.875,44.787-67.289,44.771-108.097l-47.05,0.051 c0.033,56.486-49.23,105.75-105.691,105.691H180.572L220,316.572L186.714,283.287z"/>
	</svg>

	<svg id="icon-rounded-corner" viewBox="0 0 500 500">
		<path d="M0,0v500h500C223.9,500,0,276.1,0,0z"/>
	</svg>

	<svg id="icon-home" viewBox="0 0 500 500">
		<path fill="#00ea89" class="st0" d="M466.8,241.2l-70.5-62.8V75.9h-58.1v50.7l-82.2-73.2c-3.7-3.7-9.8-3.7-13.9,0L33.4,240.7 c-2.3,2.3-3.7,5.1-3.7,8.4c0,5.6,4.6,10.2,10.7,10.2h52c0,0,0,179.3,0,179.3c0,5.6,4.6,10.2,10.7,10.2h83.6c6,0,10.7-4.6,10.7-10.2 V323.4h100.3v115.7c0,5.6,4.6,10.2,10.7,10.2h88.3c5.6,0,10.2-4.6,10.2-10.2V259.8h53c2.8,0,6-1.4,7.9-3.7 C471.5,251.4,471,244.9,466.8,241.2z"/>
	</svg>

	<svg id="icon-browse" viewBox="0 0 500 500">
		<path fill="#00ea89" d="M443.9,138.9H56.1c-11.6,0-19.7,11-18.3,24.3l27.4,248.7c1.1,10,10,18,19.8,18H415c9.8,0,18.7-8,19.8-18l27.4-248.7 C463.7,149.9,455.5,138.9,443.9,138.9z M250,364.3c-44.1,0-79.9-35.8-79.9-79.9s35.8-79.9,79.9-79.9s79.9,35.8,79.9,79.9 S294.1,364.3,250,364.3z"/>
		<path fill="#00ea89" d="M74.8,119.4h350.4l3.2-28.9c1.2-11.2-5.6-20.5-15.4-20.5H87c-9.7,0-16.6,9.2-15.4,20.5L74.8,119.4z"/>
	</svg>

	<svg id="icon-radio" viewBox="0 0 500 500">
		<path fill="#00ea89" d="M250.8,190.5c-33,0-59.6,26.6-59.6,59.2c0,33,26.6,59.6,59.6,59.6c32.5,0,59.2-26.6,59.2-59.6 C309.5,216.7,283.3,190.5,250.8,190.5z"/>
		<path fill="#00ea89" d="M402.1,97.9c-8.1-8.1-21.7-8.1-30.3,0c-8.1,8.1-8.1,21.7,0,30.3c67.3,67.3,67.3,176.2,0,243.5c-8.1,8.1-8.1,21.7,0,30.3 c4.1,4.1,9.5,6.3,14.9,6.3c5.4,0,10.8-2.3,14.9-6.3C485.6,317.9,485.6,181.5,402.1,97.9z"/>
		<path fill="#00ea89" d="M347.4,152.1c-8.1-8.1-21.7-8.1-30.3,0c-8.1,8.1-8.1,21.7,0,30.3c18.1,18.1,28,42,28,67.3s-9.9,49.2-27.6,66.8 c-8.1,8.1-8.1,21.7,0,30.3c4.1,4.1,9.5,6.3,14.9,6.3c5.4,0,10.8-2.3,14.9-6.3c25.7-25.7,40.2-60.5,40.2-97.1 C387.6,213.1,373.6,178.3,347.4,152.1z"/>
		<path fill="#00ea89" d="M78.2,249.7c0-46.1,17.6-89,50.1-121.5c8.1-8.1,8.1-21.7,0-30.3c-8.1-8.1-21.7-8.1-30.3,0c-40.7,40.7-62.8,94.4-62.8,151.8 s22.6,111.1,62.8,151.8c4.1,4.1,9.5,6.3,14.9,6.3c5.4,0,10.8-2.3,14.9-6.3c8.1-8.1,8.1-21.7,0-30.3 C96.3,339.1,78.2,295.7,78.2,249.7z"/>
		<path fill="#00ea89" d="M155.5,249.7c0-25.3,9.9-49.2,27.6-66.8c8.1-8.1,8.1-21.7,0-30.3c-8.1-8.1-21.7-8.1-30.3,0c-25.7,25.7-40.2,60.5-40.2,97.1 s14.5,71.4,40.2,97.1c4.1,4.1,9.5,6.3,14.9,6.3s10.8-2.3,14.9-6.3c8.1-8.1,8.1-21.7,0-30.3C165.4,298.9,155.5,275,155.5,249.7z"/>
	</svg>

	<svg id="icon-queue" viewBox="0 0 500 500">
		<path fill="#00ea89" d="M51.7,227.5c2.6,1.5,5.6,2.3,8.7,2.3c3.2,0,6.3-0.9,9-2.5l88.4-53c2.5-1.5,4.7-3.6,6.2-6.2c5-8.4,2.2-19.2-6.2-24.2 l-88.4-53c-2.7-1.6-5.8-2.5-9-2.5c-9.8,0-17.7,7.9-17.7,17.7v106.1C42.7,218.5,46.1,224.3,51.7,227.5z"/>
		<path fill="#00ea89" d="M445.3,130.4H216.6c-6.6,0-12-5.4-12-12v-14.1c0-6.6,5.4-12,12-12h228.7c6.6,0,12,5.4,12,12v14.1 C457.3,125,451.9,130.4,445.3,130.4z"/>
		<path fill="#00ea89" d="M442,222.8H213.3c-6.6,0-12-5.4-12-12v-14.1c0-6.6,5.4-12,12-12H442c6.6,0,12,5.4,12,12v14.1 C454,217.4,448.6,222.8,442,222.8z"/>
		<path fill="#00ea89" d="M442,315.3H55.3c-6.6,0-12-5.4-12-12v-14.1c0-6.6,5.4-12,12-12H442c6.6,0,12,5.4,12,12v14.1 C454,309.9,448.6,315.3,442,315.3z"/>
		<path fill="#00ea89" d="M442,407.7H55.3c-6.6,0-12-5.4-12-12v-14.1c0-6.6,5.4-12,12-12H442c6.6,0,12,5.4,12,12v14.1 C454,402.3,448.6,407.7,442,407.7z"/>
	</svg>

	<svg id="icon-devices" viewBox="0 0 500 500">
		<path fill="#00ea89" d="M260.6,305.3H62.8V111.6H398v65.5h27.1v-70.1c0.4-12.8-10.3-23.4-23-23.4H58.3c-12.8,0-23.4,10.7-23.4,23.4v224.2 c0,12.8,10.7,23.4,23.4,23.4h138.2l-4.5,30c-0.4,4.1-4.1,7-8.2,7H166c-4.5,0-8.2,3.7-8.2,8.2v8.2c0,4.5,3.7,8.2,8.2,8.2h94.6V305.3z  M230.2,341.5c-6.2,0-11.5-4.9-11.5-11.5s4.9-11.5,11.5-11.5s11.5,4.9,11.5,11.5S236.4,341.5,230.2,341.5z"/>
		<path fill="#00ea89" d="M469,375.7V221.5c0-14.2-11.5-25.7-25.7-25.7h-137c-14.2,0-25.7,11.5-25.7,25.7V427c0,14.2,11.5,25.7,25.7,25.7h137 c14.2,0,25.7-11.5,25.7-25.7V375.7z M366.2,204.4h17.1c4.7,0,8.6,3.8,8.6,8.6c0,4.7-3.8,8.6-8.6,8.6h-17.1c-4.7,0-8.6-3.8-8.6-8.6 C357.7,208.3,361.5,204.4,366.2,204.4z M374.8,444.1c-14.2,0-25.7-11.5-25.7-25.7c0-14.2,11.5-25.7,25.7-25.7s25.7,11.5,25.7,25.7 C400.5,432.6,389,444.1,374.8,444.1z"/>
		<circle fill="#00ea89" cx="374.8" cy="418.5" r="8.6"/>
	</svg>

	<svg id="icon-library" viewBox="0 0 500 500">
		<style type="text/css">
			.st0{fill:#fff;}
		</style>
		<path class="st0" d="M110.8,425.5H60.5c-6.6,0-12-5.4-12-12V86.5c0-6.6,5.4-12,12-12h50.3c6.6,0,12,5.4,12,12v326.9 C122.8,420.1,117.4,425.5,110.8,425.5z"/>
		<path class="st0" d="M234.6,425.5h-50.3c-6.6,0-12-5.4-12-12V86.5c0-6.6,5.4-12,12-12h50.3c6.6,0,12,5.4,12,12v326.9 C246.6,420.1,241.2,425.5,234.6,425.5z"/>
		<path class="st0" d="M449.3,407.2l-47.5,16.7c-6.2,2.2-13.1-1.1-15.3-7.3L278.1,108.1c-2.2-6.2,1.1-13.1,7.3-15.3l47.5-16.7 c6.2-2.2,13.1,1.1,15.3,7.3l108.4,308.4C458.8,398.1,455.5,405,449.3,407.2z"/>
	</svg>

	<svg id="icon-search" viewBox="0 0 500 500">
		<path fill="#00ea89" d="M334.5,216.2c0-65.2-53.1-118.3-118.3-118.3S97.9,151,97.9,216.2S151,334.5,216.2,334.5S334.5,281.4,334.5,216.2 L334.5,216.2z M469.6,435.8c0,18.5-15.3,33.8-33.8,33.8c-9,0-17.7-3.7-23.8-10l-90.5-90.3c-30.9,21.4-67.8,32.7-105.3,32.7 c-102.7,0-185.8-83.2-185.8-185.8S113.5,30.4,216.2,30.4s185.8,83.2,185.8,185.8c0,37.5-11.4,74.4-32.7,105.3l90.5,90.5 C465.9,418.2,469.6,426.9,469.6,435.8L469.6,435.8z"/>
	</svg>

	<svg id="icon-bars" viewBox="0 0 500 500">
		<style type="text/css">
			.st0{fill:none;stroke:#777;stroke-width:35;stroke-linejoin:round;}
		</style>
		<line class="st0" x1="20.2" y1="174" x2="20.2" y2="326"/>
		<line class="st0" x1="85.9" y1="174" x2="85.9" y2="326"/>
		<line class="st0" x1="151.5" y1="174" x2="151.5" y2="326"/>
		<line class="st0" x1="217.2" y1="174" x2="217.2" y2="326"/>
		<line class="st0" x1="282.8" y1="174" x2="282.8" y2="326"/>
		<line class="st0" x1="348.5" y1="174" x2="348.5" y2="326"/>
		<line class="st0" x1="414.1" y1="174" x2="414.1" y2="326"/>
		<line class="st0" x1="479.8" y1="174" x2="479.8" y2="326"/>
	</svg>

	<svg id="icon-volume" viewBox="0 0 500 500">
		<path fill="#fff" d="M39.8,162.9v174.3h99.2l148.5,121.9l0.1-418.1l-148.6,122H39.8L39.8,162.9z M344.6,142.9c-8.7-8.6-22.5-8.6-31.3,0.1 c-8.6,8.6-8.6,22.6,0,31.2v0c19,19.1,30.8,45.2,30.8,74.3c0,29-11.7,55.1-30.8,74.1c-8.7,8.7-8.7,22.6,0,31.3 c4.3,4.3,9.9,6.5,15.6,6.5c5.7,0,11.5-2.2,15.6-6.5c27-27,43.7-64.4,43.7-105.4C388.4,207.3,371.5,169.8,344.6,142.9z M395.3,92.2 c-8.7-8.6-22.5-8.6-31.2,0s-8.7,22.6,0,31.2c32,32,52,76.1,52,125c0,48.8-19.8,92.9-51.9,124.9c-8.7,8.6-8.7,22.5,0,31.2 c4.1,4.3,10,6.5,15.6,6.5c5.7,0,11.5-2.2,15.6-6.5c40-40,64.9-95.2,64.8-156.1C460,187.5,435.2,132.1,395.3,92.2z"/>
	</svg>

	<svg id="icon-mute" viewBox="0 0 500 500">
		<path fill="#fff" d="M39.8,162.9v174.3H139l148.5,121.9L287.6,41L139,163H39.8V162.9z"/>
		<path fill="#fff" d="M425.3,248.4l51.5-51.5c7.8-7.8,7.8-20.5,0-28.3c-7.8-7.8-20.5-7.8-28.3,0L397,220.1l-51.5-51.5c-7.8-7.8-20.5-7.8-28.3,0 c-7.8,7.8-7.8,20.5,0,28.3l51.5,51.5l-51.5,51.5c-7.8,7.8-7.8,20.5,0,28.3c3.9,3.9,9,5.9,14.1,5.9s10.2-2,14.1-5.9l51.5-51.5 l51.4,51.4c3.9,3.9,9,5.9,14.1,5.9s10.2-2,14.1-5.9c7.8-7.8,7.8-20.5,0-28.3L425.3,248.4z"/>
	</svg>

	<svg id="icon-clock" viewBox="0 0 500 500">
		<path fill="#fff" d="M250,465.7c118.9,0,215.7-96.7,215.7-215.7c0-118.9-96.7-215.7-215.7-215.7C131.1,34.3,34.3,131.1,34.3,250 C34.3,368.9,131.1,465.7,250,465.7z M250,77.5c95.1,0,172.5,77.4,172.5,172.5c0,95.1-77.4,172.5-172.5,172.5S77.5,345.1,77.5,250 S154.9,77.5,250,77.5z"/>
		<path fill="#fff" d="M228.9,254.2c0.1,0.6,0.4,1.2,0.5,1.8c0.2,0.8,0.4,1.5,0.7,2.3c0.3,0.7,0.7,1.3,1,2c0.3,0.6,0.6,1.2,0.9,1.7 c0.7,1.1,1.6,2.1,2.5,3c0.1,0.1,0.1,0.2,0.2,0.3l86.3,86.3c8.4,8.4,22.1,8.4,30.5,0c8.4-8.4,8.4-22.1,0-30.5l-79.9-80v-86.8 c0-11.9-9.7-21.6-21.6-21.6s-21.6,9.7-21.6,21.6V250C228.4,251.4,228.6,252.8,228.9,254.2z"/>
	</svg>

	<svg id="icon-thumb" viewBox="0 0 500 500">
		<path fill="#fff" d="M116.8,383.2c0-9.1-7.5-16.7-16.7-16.7s-16.7,7.5-16.7,16.7c0,9.1,7.5,16.7,16.7,16.7S116.8,392.3,116.8,383.2z M416.5,233.3c0-17.7-15.9-33.3-33.3-33.3h-91.6c0-30.4,25-52.6,25-83.3c0-30.4-6-50-41.6-50c-16.7,16.9-8.1,56.7-33.3,83.3 c-7.3,7.5-13.5,15.6-20,23.7c-11.7,15.1-42.7,59.6-63.2,59.6h-8.3v166.5h8.3c14.6,0,38.5,9.4,52.6,14.3c28.6,9.9,58.3,19,89,19h31.5 c29.4,0,50-11.7,50-43.4c0-4.9-0.5-9.9-1.3-14.6c10.9-6,16.9-20.8,16.9-32.8c0-6.2-1.6-12.5-4.7-18c8.8-8.3,13.8-18.7,13.8-31 c0-8.3-3.6-20.6-9.1-26.8C409.2,266.4,416.5,243,416.5,233.3z M449.8,233.1c0,15.1-4.4,29.9-12.7,42.4c1.6,5.7,2.3,12,2.3,18 c0,13-3.4,26-9.9,37.5c0.5,3.6,0.8,7.5,0.8,11.2c0,16.7-5.5,33.3-15.6,46.3c0.5,49.2-33,78.1-81.2,78.1H300 c-36.9,0-71.3-10.9-105.6-22.9c-7.5-2.6-28.6-10.4-35.9-10.4H83.5c-18.5,0-33.3-14.8-33.3-33.3V233.3c0-18.5,14.8-33.3,33.3-33.3 h71.3c10.1-6.8,27.8-30.2,35.6-40.3c8.8-11.4,18-22.6,27.8-33.3c15.6-16.7,7.3-57.8,33.3-83.3c6.2-6,14.6-9.6,23.4-9.6 c27.1,0,53.1,9.6,65.8,34.9c8.1,15.9,9.1,31,9.1,48.4c0,18.2-4.7,33.8-12.5,50h45.8C419.1,166.7,449.8,197.2,449.8,233.1z"/>
	</svg>

	<svg id="icon-heart" viewBox="0 0 500 500">
		<path fill="#fff" d="M442,175c0-70.2-47.5-85-87.5-85c-37.2,0-79.2,40.2-92.2,55.8c-6,7.2-18.5,7.2-24.5,0c-13-15.5-55-55.8-92.2-55.8 c-40,0-87.5,14.8-87.5,85c0,45.8,46.2,88.2,46.8,88.8l145.2,140L395,264C395.8,263.2,442,220.8,442,175z M474,175 c0,60-55,110.2-57.2,112.5L261,437.5c-3,3-7,4.5-11,4.5s-8-1.5-11-4.5L83,287c-2-1.8-57-52-57-112c0-73.2,44.8-117,119.5-117 c43.8,0,84.8,34.5,104.5,54c19.8-19.5,60.8-54,104.5-54C429.2,58,474,101.8,474,175z"/>
	</svg>

	<svg id="icon-heart-full" viewBox="0 0 500 500">
		<path fill="#fff" d="M474,175c0,60-55,110.2-57.2,112.5L261,437.5c-3,3-7,4.5-11,4.5s-8-1.5-11-4.5L83,287c-2-1.8-57-52-57-112 c0-73.2,44.8-117,119.5-117c43.8,0,84.8,34.5,104.5,54c19.8-19.5,60.8-54,104.5-54C429.2,58,474,101.8,474,175z"/>
	</svg>

	<svg id="icon-chevron-left" viewBox="0 0 500 500">
		<style type="text/css">
			.st0{fill:none;stroke:#fff;stroke-width:64;stroke-linecap:round;stroke-linejoin:round;}
		</style>
		<polyline class="st0" points="154.4,443 347.2,250.3 152.8,57 "/>
	</svg>

	<svg id="icon-chevron-right" viewBox="0 0 500 500">
		<style type="text/css">
			.st0{fill:none;stroke:#fff;stroke-width:64;stroke-linecap:round;stroke-linejoin:round;}
		</style>
		<polyline class="st0" points="345.6,57 152.8,249.7 347.2,443 "/>
	</svg>

</svg>